<svg xmlns="http://www.w3.org/2000/svg" width="22" height="22" viewBox="0 0 24 24"><path d="m20.84 4.61-.53.53zm1.193 1.785.693-.287zm-8.097 13.33-.456-.596zm-.058.043-.455-.595zm-3.76.003.463-.59zM3.16 4.61l-.53-.53zm7.78 0-.53.53zM12 5.67l-.53.53a.75.75 0 0 0 1.06 0zm1.06-1.06.53.53zm8.31-.53a6.3 6.3 0 0 0-2.028-1.356l-.574 1.386a4.8 4.8 0 0 1 1.541 1.03zm1.356 2.028A6.3 6.3 0 0 0 21.37 4.08l-1.06 1.06a4.8 4.8 0 0 1 1.03 1.542zm.476 2.392a6.3 6.3 0 0 0-.476-2.392l-1.386.574a4.8 4.8 0 0 1 .362 1.818zm-8.81 11.82c1.915-1.464 4.104-3.134 5.807-5.045 1.706-1.915 3.003-4.156 3.003-6.775h-1.5c0 2.097-1.034 3.995-2.623 5.777-1.59 1.785-3.66 3.37-5.599 4.852zm-.058.044.057-.044-.91-1.191-.058.044zm-4.678-.002c.754.59 1.512.964 2.349.958.831-.005 1.585-.387 2.329-.956l-.911-1.191c-.634.484-1.07.645-1.429.648-.353.002-.785-.149-1.413-.64zM.8 8.5c0 2.384 1.382 4.664 3.102 6.636 1.737 1.992 3.928 3.795 5.755 5.226l.925-1.181c-1.818-1.424-3.912-3.153-5.55-5.03C3.379 12.254 2.3 10.325 2.3 8.5zm1.83-4.42A6.25 6.25 0 0 0 .8 8.5h1.5c0-1.26.5-2.469 1.391-3.36zM7.05 2.249a6.25 6.25 0 0 0-4.42 1.83L3.69 5.14A4.75 4.75 0 0 1 7.05 3.75zm4.42 1.83a6.25 6.25 0 0 0-4.42-1.83v1.5c1.26 0 2.469.5 3.36 1.391zm1.06 1.06-1.06-1.06-1.06 1.061 1.06 1.06zm0-1.06-1.06 1.06L12.53 6.2l1.06-1.06zm2.027-1.355A6.3 6.3 0 0 0 12.53 4.08l1.06 1.06a4.8 4.8 0 0 1 1.542-1.03zm2.393-.476a6.3 6.3 0 0 0-2.392.476l.574 1.386a4.8 4.8 0 0 1 1.818-.362zm2.392.476a6.3 6.3 0 0 0-2.392-.476v1.5a4.8 4.8 0 0 1 1.818.362z"/></svg>